# xmcd CD database file
#
# Track frame offsets:
#	150
#	19965
#	37678
#	62192
#	82447
#	103968
#	132788
#	146695
#	171838
#	187157
#	214049
#	232164
#	252862
#	265409
#	282090
#	310246
#
# Disc length: 4391 seconds
#
# Revision: 0
# Processed by: cddbd v1.5.1PL0 Copyright (c) Steve Scherf et al.
# Submitted via: CDex 1.51
#
DISCID=f7112510
DTITLE=Gila Antara - Rise
DYEAR=2000
DGENRE=New Age
TTITLE0=Deeply Connected
TTITLE1=Feuer Brennt
TTITLE2=Finde zum Kern
TTITLE3=Hang on to the Wind
TTITLE4=Die Kraft finden
TTITLE5=Walking in the Moonlight
TTITLE6=Lass es Werden
TTITLE7=New Morning
TTITLE8=Du lieber Gott
TTITLE9=Living in the Now
TTITLE10=Die Schale
TTITLE11=Richte dich auf
TTITLE12=Ocean meets the Sky
TTITLE13=Lay your Weapons down
TTITLE14=Rise
TTITLE15=Wait for the Heart
EXTD=YEAR: 2000
EXTT0=
EXTT1=
EXTT2=
EXTT3=
EXTT4=
EXTT5=
EXTT6=
EXTT7=
EXTT8=
EXTT9=
EXTT10=
EXTT11=
EXTT12=
EXTT13=
EXTT14=
EXTT15=
PLAYORDER=
